#!OML:ASF H:\Male1\Project 1\Capture day 1\Session 1\Male1.ASF
:FULLY-SPECIFIED
:DEGREES
175
root 3.8424 13.4287 2.90083 182.377 4.41629 -179.223
lowerback 23.955 -1.74005 -11.0972
upperback 7.64212 -3.21871 -5.12635
thorax -4.37781 -0.770303 1.49728
lowerneck -17.9098 -6.61073 -6.47038
upperneck 13.5537 -9.96905 16.1403
head 8.39416 -3.37241 5.2396
rclavicle -2.54444e-014 -1.1291e-013
rhumerus -40.2896 18.9023 -84.6272
rradius 79.5656
rwrist -51.5898
rhand -29.9302 -1.86085
rfingers 7.12502
rthumb -3.25004 -31.8158
lclavicle -2.54444e-014 -1.1291e-013
lhumerus -9.4708 -11.3341 81.0352
lradius 65.1308
lwrist 25.2754
lhand -36.5288 25.1885
lfingers 7.12502
lthumb -9.62006 54.9488
rfemur -38.0572 7.63141 27.8244
rtibia 72.6736
rfoot -33.0428 -34.8603
rtoes -29.3084
lfemur -35.3414 -10.1606 -15.3054
ltibia 69.5447
lfoot -32.3123 9.56497
ltoes -15.8801
176
root 4.19394 13.5674 2.91601 182.486 4.76079 -177.083
lowerback 23.3307 -2.07676 -9.03726
upperback 7.53528 -3.26614 -4.94094
thorax -4.35048 -0.852673 0.56596
lowerneck -17.1246 -6.72402 -6.93545
upperneck 14.4084 -10.1479 16.0771
head 8.57715 -3.49392 5.29849
rclavicle -8.26944e-014 -1.74931e-013
rhumerus -42.3163 21.7973 -82.8934
rradius 83.8109
rwrist -47.4738
rhand -30.1697 1.29712
rfingers 7.12502
rthumb -3.48136 -28.6542
lclavicle -8.26944e-014 -1.74931e-013
lhumerus -9.53526 -11.6309 78.7102
lradius 67.24
lwrist 25.3619
lhand -35.4955 24.4656
lfingers 7.12502
lthumb -8.62295 54.2695
rfemur -36.0217 7.7395 31.6475
rtibia 69.598
rfoot -31.6567 -34.5764
rtoes -29.9817
lfemur -33.861 -9.38222 -11.0715
ltibia 66.8481
lfoot -31.0617 8.6811
ltoes -17.6035
177
root 4.57076 13.7995 2.91554 181.965 5.74881 -178.579
lowerback 22.7948 -1.95371 -10.9877
upperback 7.38142 -3.43415 -5.91738
thorax -4.12726 -0.895312 0.608789
lowerneck -16.891 -6.56967 -6.96059
upperneck 15.9766 -10.1003 16.0261
head 9.05392 -3.40664 5.33672
rclavicle -6.36111e-015 7.95139e-014
rhumerus -45.0855 24.4737 -82.4151
rradius 87.7419
rwrist -45.8707
rhand -30.8668 2.76006
rfingers 7.12502
rthumb -4.15452 -27.1792
lclavicle -6.36111e-015 7.95139e-014
lhumerus -9.55838 -10.2285 76.0148
lradius 69.672
lwrist 25.1777
lhand -35.5085 24.1618
lfingers 7.12502
lthumb -8.63547 53.9652
rfemur -33.51 7.21903 31.7048
rtibia 65.9304
rfoot -30.5409 -32.9763
rtoes -26.8836
lfemur -30.6355 -7.67685 -11.0727
ltibia 62.5336
lfoot -29.2314 7.46092
ltoes -18.3168
178
root 4.96423 14.0932 2.90038 181.482 6.9685 -179.107
lowerback 21.6948 -2.03103 -11.2967
upperback 7.40028 -3.33156 -7.51656
thorax -3.61463 -0.776875 -1.01188
lowerneck -15.5006 -6.32606 -6.26838
upperneck 16.0976 -10.1259 17.5392
head 8.91341 -3.20813 5.79131
rclavicle 3.18055e-015 6.04305e-014
rhumerus -49.1185 25.8145 -84.0374
rradius 91.0115
rwrist -45.3908
rhand -31.1673 3.2258
rfingers 7.12502
rthumb -4.44468 -26.7076
lclavicle 3.18055e-015 6.04305e-014
lhumerus -10.1979 -10.8999 71.201
lradius 72.1109
lwrist 26.1689
lhand -35.5237 23.7507
lfingers 7.12502
lthumb -8.6502 53.5534
rfemur -30.2706 5.6941 32.8655
rtibia 61.1129
rfoot -29.3522 -30.1566
rtoes -20.3407
lfemur -26.928 -5.44596 -9.99978
ltibia 57.5594
lfoot -26.2939 6.25285
ltoes -20.0107
179
root 5.3829 14.4512 2.87849 180.342 8.28815 -179.415
lowerback 21.231 -1.98211 -12.7043
upperback 7.40963 -3.35176 -8.43415
thorax -3.28286 -0.732887 -1.25693
lowerneck -14.6788 -5.77469 -5.43251
upperneck 17.3718 -9.58186 17.2302
head 9.05614 -2.86821 5.67056
rclavicle 1.11319e-014 1.90833e-014
rhumerus -53.641 28.5894 -85.8828
rradius 93.6275
rwrist -45.5098
rhand -33.112 4.32911
rfingers 7.12502
rthumb -6.32233 -25.5565
lclavicle 1.11319e-014 1.90833e-014
lhumerus -11.3731 -10.3237 66.7139
lradius 74.1495
lwrist 27.0431
lhand -35.7741 23.6746
lfingers 7.12502
lthumb -8.89183 53.4672
rfemur -26.1448 3.49638 34.1838
rtibia 55.9676
rfoot -27.0055 -26.5909
rtoes -13.0854
lfemur -22.0834 -3.15474 -8.70221
ltibia 51.856
lfoot -21.9757 5.36455
ltoes -23.48
180
root 5.80926 14.826 2.85482 179.564 9.45384 -179.081
lowerback 20.3275 -2.1073 -13.0276
upperback 7.50745 -3.25923 -9.60225
thorax -2.73713 -0.627462 -2.39916
lowerneck -13.3733 -5.2043 -4.38368
upperneck 17.6753 -9.03574 18.0045
head 8.84381 -2.43611 5.87696
rclavicle 1.59028e-015 6.36111e-014
rhumerus -58.61 30.2173 -88.7827
rradius 95.3455
rwrist -44.2796
rhand -33.9594 8.76025
rfingers 7.12502
rthumb -7.1404 -21.0993
lclavicle 1.59028e-015 6.36111e-014
lhumerus -13.1419 -10.5133 61.3934
lradius 76.7144
lwrist 28.0873
lhand -36.4151 23.7697
lfingers 7.12502
lthumb -9.51029 53.5351
rfemur -22.1055 0.7546 35.9083
rtibia 50.3449
rfoot -20.0716 -24.5209
rtoes -15.5365
lfemur -18.0055 -1.13411 -6.6845
ltibia 46.5467
lfoot -15.3728 3.96718
ltoes -25.0383
181
root 6.25691 15.2646 2.82577 179.541 10.4276 -178.299
lowerback 18.8753 -2.30996 -13.11
upperback 7.41657 -3.25234 -10.3582
thorax -2.11204 -0.625489 -3.20256
lowerneck -12.2122 -4.52695 -3.45461
upperneck 18.0911 -8.23468 18.3999
head 8.64563 -1.92639 5.992
rclavicle -3.33958e-014 -3.81667e-014
rhumerus -64.017 30.4216 -91.3166
rradius 96.7807
rwrist -41.7467
rhand -34.2236 13.1907
rfingers 7.12502
rthumb -7.39543 -16.66
lclavicle -3.33958e-014 -3.81667e-014
lhumerus -14.8422 -10.3307 56.3651
lradius 77.9562
lwrist 27.0584
lhand -35.4304 22.0443
lfingers 7.12502
lthumb -8.56014 51.8508
rfemur -18.9682 -1.28939 37.4383
rtibia 44.8519
rfoot -13.9575 -20.8709
rtoes -9.8721
lfemur -15.0067 -1.5348 -4.61054
ltibia 41.847
lfoot -7.25209 5.31575
ltoes -26.3766
182
root 6.70399 15.6889 2.80604 179.459 10.9654 -177.498
lowerback 17.6393 -2.48875 -13.2258
upperback 7.49723 -3.2115 -10.8189
thorax -1.38348 -0.617599 -3.67012
lowerneck -11.3964 -3.9001 -2.71707
upperneck 18.3452 -7.4095 18.4132
head 8.44612 -1.47218 5.98251
rclavicle 1.1291e-013 1.78111e-013
rhumerus -69.3383 29.708 -93.1018
rradius 98.1184
rwrist -38.4198
rhand -34.1142 16.9426
rfingers 7.12502
rthumb -7.28976 -12.9118
lclavicle 1.1291e-013 1.78111e-013
lhumerus -16.4885 -10.3867 51.9589
lradius 78.9391
lwrist 26.0191
lhand -35.6632 20.8378
lfingers 7.12502
lthumb -8.78479 50.635
rfemur -15.9324 -2.57373 38.738
rtibia 39.663
rfoot -5.06166 -18.8457
rtoes -15.3874
lfemur -12.863 -5.12257 -3.25649
ltibia 38.4231
lfoot 0.259047 11.1518
ltoes -24.282
183
root 7.14573 16.0851 2.79973 179.822 11.3396 -176.107
lowerback 16.3556 -2.50615 -12.8032
upperback 7.61597 -2.98719 -10.6437
thorax -0.61435 -0.581725 -3.75553
lowerneck -11.1091 -3.4245 -2.26118
upperneck 18.7202 -6.76814 18.1666
head 8.41308 -1.13505 5.90388
rclavicle 5.40694e-014 2.38542e-013
rhumerus -74.6513 28.0682 -93.5455
rradius 98.9536
rwrist -35.5513
rhand -33.3671 20.5315
rfingers 7.12502
rthumb -6.56865 -9.34665
lclavicle 5.40694e-014 2.38542e-013
lhumerus -17.8722 -10.3578 48.654
lradius 79.3083
lwrist 24.674
lhand -35.5451 19.419
lfingers 7.12502
lthumb -8.67088 49.2209
rfemur -13.6101 -1.74767 40.0032
rtibia 34.9707
rfoot 0.683223 -18.1478
rtoes -23.0341
lfemur -11.8486 -11.9827 -1.89218
ltibia 36.4462
lfoot 2.365 22.5988
ltoes 3.74914
184
root 7.54386 16.4651 2.81359 180.382 11.5015 -175.879
lowerback 15.0818 -2.58892 -12.8118
upperback 7.63334 -2.90966 -10.5395
thorax 0.0836335 -0.605783 -3.66642
lowerneck -10.8681 -2.9866 -2.3207
upperneck 18.7948 -6.09063 17.9688
head 8.30208 -0.849708 5.91892
rclavicle 7.4743e-014 2.57625e-013
rhumerus -78.8103 25.6712 -93.2717
rradius 98.8954
rwrist -35.4402
rhand -32.4671 20.6657
rfingers 7.12502
rthumb -5.69971 -9.23768
lclavicle 7.4743e-014 2.57625e-013
lhumerus -19.0468 -10.4254 46.0612
lradius 78.8045
lwrist 23.4424
lhand -35.3306 17.977
lfingers 7.12502
lthumb -8.46387 47.7874
rfemur -12.3622 -1.61306 39.649
rtibia 31.1249
rfoot 7.36942 -16.3585
rtoes -27.2497
lfemur -11.3615 -17.1326 -2.81788
ltibia 35.6537
lfoot -11.9038 34.7878
ltoes 23.313
185
root 7.92888 16.7806 2.85171 181.049 11.3533 -174.359
lowerback 14.2982 -2.80324 -10.9413
upperback 7.71922 -2.97857 -10.2365
thorax 0.436907 -0.687184 -4.34844
lowerneck -10.2971 -2.72898 -1.51867
upperneck 18.5821 -5.71067 17.5559
head 8.04529 -0.682137 5.65847
rclavicle 7.95139e-015 6.04305e-014
rhumerus -82.9781 22.8811 -93.6062
rradius 98.6345
rwrist -38.1295
rhand -33.185 19.1375
rfingers 7.12502
rthumb -6.39277 -10.746
lclavicle 7.95139e-015 6.04305e-014
lhumerus -20.2028 -10.7794 43.5654
lradius 78.0987
lwrist 22.8322
lhand -35.395 16.758
lfingers 7.12502
lthumb -8.52595 46.5659
rfemur -11.5305 -2.22077 40.4969
rtibia 28.3376
rfoot 10.9341 -12.1928
rtoes -39.2335
lfemur -11.8957 -18.16 -2.07431
ltibia 35.8651
lfoot -28.4861 36.2501
ltoes 43.4583
186
root 8.3238 17.0619 2.91348 181.168 11.2228 -173.873
lowerback 14.2115 -2.7084 -10.5598
upperback 7.88434 -2.8441 -9.75622
thorax 0.646628 -0.66228 -4.05427
lowerneck -10.3788 -2.48423 -1.52
upperneck 18.5217 -5.33833 17.4463
head 7.99508 -0.52092 5.65465
rclavicle -9.54166e-015 3.81667e-014
rhumerus -85.7167 20.6645 -93.9147
rradius 97.1235
rwrist -41.1628
rhand -35.4688 15.6193
rfingers 7.12502
rthumb -8.59721 -14.1856
lclavicle -9.54166e-015 3.81667e-014
lhumerus -21.3173 -10.9725 42.0349
lradius 77.4212
lwrist 22.5774
lhand -35.583 16.1868
lfingers 7.12502
lthumb -8.7074 45.9872
rfemur -10.9399 -2.39308 40.2612
rtibia 27.1492
rfoot 10.4625 -8.56333
rtoes -33.0305
lfemur -12.5733 -16.1426 -2.65407
ltibia 36.1923
lfoot -26.9149 38.0422
ltoes 39.1627
187
root 8.71204 17.2935 2.99469 181.319 11.1418 -173.469
lowerback 14.3931 -2.61589 -10.0506
upperback 8.02552 -2.75012 -9.23604
thorax 0.677311 -0.649127 -3.77811
lowerneck -10.4503 -2.2965 -1.08925
upperneck 18.0146 -5.0375 17.006
head 7.78647 -0.434922 5.43026
rclavicle 2.70347e-014 1.24042e-013
rhumerus -87.7717 18.8914 -94.6326
rradius 94.9872
rwrist -42.7642
rhand -39.0078 11.5737
rfingers 7.12502
rthumb -12.0112 -18.0616
lclavicle 2.70347e-014 1.24042e-013
lhumerus -22.6363 -11.3633 40.7769
lradius 76.832
lwrist 22.6762
lhand -35.5222 16.6284
lfingers 7.12502
lthumb -8.64873 46.4312
rfemur -10.9136 -0.499076 39.885
rtibia 27.466
rfoot 7.62063 -10.742
rtoes -27.057
lfemur -13.5734 -11.8295 -3.3271
ltibia 36.5488
lfoot -20.569 31.8283
ltoes 32.1232
188
root 9.08803 17.5024 3.0867 181.005 10.8789 -174.184
lowerback 15.1586 -2.60558 -10.4238
upperback 8.20878 -2.83656 -9.00257
thorax 0.510955 -0.687104 -3.2998
lowerneck -10.9806 -2.1021 -1.05098
upperneck 17.9453 -4.77725 16.8245
head 7.83002 -0.320157 5.38457
rclavicle 6.04305e-014 2.22639e-014
rhumerus -88.4726 17.3918 -94.9416
rradius 91.7766
rwrist -44.3738
rhand -38.8592 9.68156
rfingers 7.12502
rthumb -11.8679 -19.9621
lclavicle 6.04305e-014 2.22639e-014
lhumerus -24.4469 -12.1556 39.6137
lradius 76.5698
lwrist 23.1119
lhand -35.3723 16.9635
lfingers 7.12502
lthumb -8.50411 46.7723
rfemur -11.2304 0.484634 38.0374
rtibia 28.9573
rfoot 5.32095 -15.4378
rtoes -27.5723
lfemur -14.1461 -8.82851 -5.5168
ltibia 36.702
lfoot -15.5466 23.698
ltoes 21.5787
189
root 9.45593 17.664 3.18455 180.841 10.247 -175.033
lowerback 15.8851 -2.67598 -10.5708
upperback 8.33035 -3.0177 -8.78697
thorax 0.284523 -0.766298 -2.94912
lowerneck -10.934 -2.11505 -1.01924
upperneck 17.4167 -4.70473 16.3268
head 7.62338 -0.393508 5.18748
rclavicle 5.56597e-014 1.20861e-013
rhumerus -89.0243 16.3887 -96.4133
rradius 88.3353
rwrist -43.6836
rhand -39.7686 9.30089
rfingers 7.12502
rthumb -12.7447 -20.2902
lclavicle 5.56597e-014 1.20861e-013
lhumerus -25.6863 -11.9716 39.107
lradius 75.4951
lwrist 22.162
lhand -34.6557 16.4154
lfingers 7.12502
lthumb -7.81248 46.2511
rfemur -12.129 0.410656 35.8017
rtibia 31.0913
rfoot 2.40749 -19.8287
rtoes -27.0191
lfemur -14.8553 -8.28861 -7.99151
ltibia 36.8779
lfoot -9.18504 17.4747
ltoes 1.0119
